<svg width="231" height="128" viewBox="0 0 231 128" fill="none" xmlns="http://www.w3.org/2000/svg">
<path d="M114.556 94V68.8H118.372V79.6H130.576V68.8H134.392V94H130.576V82.732H118.372V94H114.556ZM154.925 94.432C153.221 94.432 151.685 94.048 150.317 93.28C148.973 92.488 147.905 91.396 147.113 90.004C146.321 88.588 145.925 86.944 145.925 85.072C145.925 83.2 146.321 81.568 147.113 80.176C147.929 78.76 149.021 77.668 150.389 76.9C151.757 76.108 153.281 75.712 154.961 75.712C156.665 75.712 158.189 76.108 159.533 76.9C160.901 77.668 161.981 78.76 162.773 80.176C163.589 81.568 163.997 83.2 163.997 85.072C163.997 86.944 163.589 88.588 162.773 90.004C161.981 91.396 160.901 92.488 159.533 93.28C158.165 94.048 156.629 94.432 154.925 94.432ZM154.925 91.156C155.837 91.156 156.677 90.928 157.445 90.472C158.237 90.016 158.873 89.344 159.353 88.456C159.833 87.544 160.073 86.416 160.073 85.072C160.073 83.728 159.833 82.612 159.353 81.724C158.897 80.812 158.273 80.128 157.481 79.672C156.713 79.216 155.873 78.988 154.961 78.988C154.049 78.988 153.197 79.216 152.405 79.672C151.637 80.128 151.013 80.812 150.533 81.724C150.053 82.612 149.813 83.728 149.813 85.072C149.813 86.416 150.053 87.544 150.533 88.456C151.013 89.344 151.637 90.016 152.405 90.472C153.173 90.928 154.013 91.156 154.925 91.156ZM182.109 94C180.357 94 178.965 93.58 177.933 92.74C176.901 91.876 176.385 90.352 176.385 88.168V79.348H173.325V76.144H176.385L176.853 71.608H180.201V76.144H185.241V79.348H180.201V88.168C180.201 89.152 180.405 89.836 180.813 90.22C181.245 90.58 181.977 90.76 183.009 90.76H185.061V94H182.109ZM204.27 94.432C202.518 94.432 200.958 94.048 199.59 93.28C198.246 92.488 197.19 91.396 196.422 90.004C195.654 88.612 195.27 86.992 195.27 85.144C195.27 83.272 195.642 81.628 196.386 80.212C197.154 78.796 198.21 77.692 199.554 76.9C200.922 76.108 202.506 75.712 204.306 75.712C206.058 75.712 207.582 76.108 208.878 76.9C210.174 77.668 211.182 78.7 211.902 79.996C212.622 81.292 212.982 82.72 212.982 84.28C212.982 84.52 212.97 84.784 212.946 85.072C212.946 85.336 212.934 85.636 212.91 85.972H199.014C199.134 87.7 199.698 89.02 200.706 89.932C201.738 90.82 202.926 91.264 204.27 91.264C205.35 91.264 206.25 91.024 206.97 90.544C207.714 90.04 208.266 89.368 208.626 88.528H212.442C211.962 90.208 211.002 91.612 209.562 92.74C208.146 93.868 206.382 94.432 204.27 94.432ZM204.27 78.844C202.998 78.844 201.87 79.228 200.886 79.996C199.902 80.74 199.302 81.868 199.086 83.38H209.166C209.094 81.988 208.602 80.884 207.69 80.068C206.778 79.252 205.638 78.844 204.27 78.844ZM224.142 94V68.08H227.958V94H224.142Z" fill="black"/>
<path d="M114.556 59V33.8H119.056L127.588 50.576L136.084 33.8H140.584V59H136.768V40.388L129.064 55.4H126.112L118.372 40.424V59H114.556ZM154.848 66.92L159.132 57.524H158.088L151.032 41.144H155.172L160.644 54.356L166.368 41.144H170.4L158.88 66.92H154.848Z" fill="black"/>
<path opacity="0.95" d="M41.7 86.11V97.76L51.7799 91.93V80.29L41.7 86.11Z" fill="#414042"/>
<path opacity="0.5" d="M40.08 86.11V97.76L30 91.93V80.29L40.08 86.11Z" fill="#414042"/>
<path opacity="0.3" d="M41.7 73.53V84.24L50.9799 78.88L41.7 73.53Z" fill="#414042"/>
<path opacity="0.75" d="M40.0801 73.53L30.8 78.88L40.0801 84.24V73.53Z" fill="#414042"/>
<path opacity="0.95" d="M40.08 70.67V59.02L30 64.85V76.49L40.08 70.67Z" fill="#414042"/>
<path opacity="0.95" d="M41.7 43.58V55.23L51.7799 49.4V37.76L41.7 43.58Z" fill="#414042"/>
<path opacity="0.5" d="M40.08 43.58V55.23L30 49.4V37.76L40.08 43.58Z" fill="#414042"/>
<path opacity="0.3" d="M41.7 31V41.71L50.9799 36.35L41.7 31Z" fill="#414042"/>
<path opacity="0.75" d="M40.0801 31L30.8 36.35L40.0801 41.71V31Z" fill="#414042"/>
<path opacity="0.75" d="M30.8 51.72V62.44L40.0801 57.08L30.8 51.72Z" fill="#414042"/>
<path opacity="0.15" d="M50.9799 51.72L41.7 57.08L50.9799 62.44V51.72Z" fill="#414042"/>
<path opacity="0.5" d="M41.7 70.67V59.02L51.7799 64.85V76.49L41.7 70.67Z" fill="#414042"/>
<path opacity="0.95" d="M65.2 86.11V97.76L75.28 91.93V80.29L65.2 86.11Z" fill="#414042"/>
<path opacity="0.5" d="M63.58 86.11V97.76L53.5 91.93V80.29L63.58 86.11Z" fill="#414042"/>
<path opacity="0.3" d="M65.2 73.53V84.24L74.48 78.88L65.2 73.53Z" fill="#414042"/>
<path opacity="0.75" d="M63.5801 73.53L54.3 78.88L63.5801 84.24V73.53Z" fill="#414042"/>
<path opacity="0.95" d="M63.58 70.67V59.02L53.5 64.85V76.49L63.58 70.67Z" fill="#414042"/>
<path opacity="0.95" d="M65.2 43.58V55.23L75.28 49.4V37.76L65.2 43.58Z" fill="#414042"/>
<path opacity="0.5" d="M63.58 43.58V55.23L53.5 49.4V37.76L63.58 43.58Z" fill="#414042"/>
<path opacity="0.3" d="M65.2 31V41.71L74.48 36.35L65.2 31Z" fill="#414042"/>
<path opacity="0.75" d="M63.5801 31L54.3 36.35L63.5801 41.71V31Z" fill="#414042"/>
<path opacity="0.75" d="M54.3 51.72V62.44L63.5801 57.08L54.3 51.72Z" fill="#414042"/>
<path opacity="0.15" d="M74.48 51.72L65.2 57.08L74.48 62.44V51.72Z" fill="#414042"/>
<path opacity="0.5" d="M65.2 70.67V59.02L75.28 64.85V76.49L65.2 70.67Z" fill="#414042"/>
<path opacity="0.95" d="M88.3599 86.11V97.76L98.4498 91.93V80.29L88.3599 86.11Z" fill="#414042"/>
<path opacity="0.5" d="M86.7499 86.11V97.76L76.6599 91.93V80.29L86.7499 86.11Z" fill="#414042"/>
<path opacity="0.3" d="M88.3599 73.53V84.24L97.6398 78.88L88.3599 73.53Z" fill="#414042"/>
<path opacity="0.75" d="M86.75 73.53L77.47 78.88L86.75 84.24V73.53Z" fill="#414042"/>
<path opacity="0.95" d="M86.7499 70.67V59.02L76.6599 64.85V76.49L86.7499 70.67Z" fill="#414042"/>
<path opacity="0.95" d="M88.3599 43.58V55.23L98.4498 49.4V37.76L88.3599 43.58Z" fill="#414042"/>
<path opacity="0.5" d="M86.7499 43.58V55.23L76.6599 49.4V37.76L86.7499 43.58Z" fill="#414042"/>
<path opacity="0.3" d="M88.3599 31V41.71L97.6398 36.35L88.3599 31Z" fill="#414042"/>
<path opacity="0.75" d="M86.75 31L77.47 36.35L86.75 41.71V31Z" fill="#414042"/>
<path opacity="0.75" d="M77.47 51.72V62.44L86.75 57.08L77.47 51.72Z" fill="#414042"/>
<path opacity="0.15" d="M97.6398 51.72L88.3599 57.08L97.6398 62.44V51.72Z" fill="#414042"/>
<path opacity="0.5" d="M88.3599 70.67V59.02L98.4498 64.85V76.49L88.3599 70.67Z" fill="#414042"/>
</svg>
